<?xml version="1.0" encoding="UTF-8" standalone="no"?>
<svg width="610px" height="610px" viewBox="0 0 610 610" version="1.1" xmlns="http://www.w3.org/2000/svg" xmlns:xlink="http://www.w3.org/1999/xlink" style="background: #F0F2F4;">
    <!-- Generator: Sketch 3.8.3 (29802) - http://www.bohemiancoding.com/sketch -->
    <title>chart_auto_x</title>
    <desc>Created with Sketch.</desc>
    <defs></defs>
    <g id="Page-1" stroke="none" stroke-width="1" fill="none" fill-rule="evenodd">
        <g id="chart_auto_x">
            <circle id="Oval" fill="#FCD748" style="mix-blend-mode: multiply;" cx="205" cy="205" r="205"></circle>
            <circle id="Oval-Copy" fill="#5FC7FF" style="mix-blend-mode: multiply;" cx="305" cy="405" r="205"></circle>
            <circle id="Oval" fill="#FF5DA5" style="mix-blend-mode: multiply;" cx="405" cy="205" r="205"></circle>
            <path d="M277.483,282.126 L275.173,282.159 L270.751,282.159 L268.441,282.126 L266.527,288.033 C266.240999,288.099 265.889002,288.132 265.471,288.132 C265.052998,288.132 264.624002,288.077001 264.184,287.967 L264.118,287.868 L271.675,265.461 C272.049002,265.395 272.543997,265.362 273.16,265.362 C273.776003,265.362 274.226999,265.395 274.513,265.461 L282.07,287.868 C281.717998,288.088001 281.278003,288.198 280.75,288.198 C280.221997,288.198 279.848001,288.110001 279.628,287.934 C279.407999,287.757999 279.221001,287.406003 279.067,286.878 L277.483,282.126 Z M269.167,279.981 L271.081,279.948 L274.876,279.948 C274.898,279.948 275.167497,279.9535 275.6845,279.9645 C276.201503,279.9755 276.569999,279.981 276.79,279.981 L274.711,273.711 C273.874996,271.136987 273.314001,269.300005 273.028,268.2 L272.863,268.2 C272.444998,269.828008 272.071002,271.136995 271.741,272.127 L269.167,279.981 Z M285.667,283.149 L285.667,274.932 C285.667,273.765994 285.535001,272.831004 285.271,272.127 C285.645002,271.774998 286.161997,271.599 286.822,271.599 C287.658004,271.599 288.076,272.137995 288.076,273.216 L288.076,282.357 C288.076,283.743007 288.251998,284.710997 288.604,285.261 C288.956002,285.811003 289.571996,286.086 290.452,286.086 C291.332004,286.086 292.244995,285.849502 293.191,285.3765 C294.137005,284.903498 294.928997,284.293004 295.567,283.545 L295.567,271.83 C295.699001,271.786 295.874999,271.753 296.095,271.731 C296.315001,271.709 296.545999,271.698 296.788,271.698 C297.030001,271.698 297.255499,271.709 297.4645,271.731 C297.673501,271.753 297.854999,271.786 298.009,271.83 L298.009,283.446 C298.009,285.206009 298.316997,286.382997 298.933,286.977 C298.734999,287.593003 298.361003,288.010999 297.811,288.231 C296.732995,287.878998 296.040002,287.065006 295.732,285.789 C294.983996,286.537004 294.087505,287.141998 293.0425,287.604 C291.997495,288.066002 290.947005,288.297 289.891,288.297 C288.416993,288.297 287.344503,287.824005 286.6735,286.878 C286.002497,285.931995 285.667,284.689008 285.667,283.149 L285.667,283.149 Z M311.011,271.797 C311.077,272.127002 311.11,272.440499 311.11,272.7375 C311.11,273.034501 311.077,273.347998 311.011,273.678 L306.82,273.645 L306.82,284.733 C306.82,285.657005 307.248996,286.119 308.107,286.119 L310.615,286.119 C310.769001,286.493002 310.846,286.866998 310.846,287.241 C310.846,287.615002 310.824,287.846 310.78,287.934 C309.767995,288.066001 308.723005,288.132 307.645,288.132 C305.510989,288.132 304.444,287.219009 304.444,285.393 L304.444,273.645 L302.101,273.678 C302.035,273.347998 302.002,273.034501 302.002,272.7375 C302.002,272.440499 302.035,272.127002 302.101,271.797 L304.444,271.83 L304.444,268.365 C304.444,267.770997 304.531999,267.347501 304.708,267.0945 C304.884001,266.841499 305.224997,266.715 305.731,266.715 L306.622,266.715 L306.82,266.913 L306.82,271.863 L311.011,271.797 Z M324.838,286.647 C323.671994,287.813006 322.154009,288.396 320.284,288.396 C319.183994,288.396 318.210504,288.187002 317.3635,287.769 C316.516496,287.350998 315.801503,286.773504 315.2185,286.0365 C314.635497,285.299496 314.195501,284.408505 313.8985,283.3635 C313.601499,282.318495 313.453,281.169006 313.453,279.915 C313.453,278.660994 313.601499,277.511505 313.8985,276.4665 C314.195501,275.421495 314.635497,274.525004 315.2185,273.777 C315.801503,273.028996 316.516496,272.446002 317.3635,272.028 C318.210504,271.609998 319.183994,271.401 320.284,271.401 C321.384006,271.401 322.357496,271.609998 323.2045,272.028 C324.051504,272.446002 324.766497,273.028996 325.3495,273.777 C325.932503,274.525004 326.377998,275.421495 326.686,276.4665 C326.994002,277.511505 327.148,278.660994 327.148,279.915 C327.148,282.863015 326.378008,285.106992 324.838,286.647 L324.838,286.647 Z M320.317,286.482 C321.725007,286.482 322.797496,285.882506 323.5345,284.6835 C324.271504,283.484494 324.64,281.89501 324.64,279.915 C324.64,279.034996 324.557501,278.193504 324.3925,277.3905 C324.227499,276.587496 323.969002,275.883503 323.617,275.2785 C323.264998,274.673497 322.814003,274.195002 322.264,273.843 C321.713997,273.490998 321.054004,273.315 320.284,273.315 C319.535996,273.315 318.892503,273.485498 318.3535,273.8265 C317.814497,274.167502 317.369002,274.634997 317.017,275.229 C316.664998,275.823003 316.406501,276.521496 316.2415,277.3245 C316.076499,278.127504 315.994,278.990995 315.994,279.915 C315.994,280.839005 316.076499,281.696996 316.2415,282.489 C316.406501,283.281004 316.659498,283.973997 317.0005,284.568 C317.341502,285.162003 317.786997,285.629498 318.337,285.9705 C318.887003,286.311502 319.546996,286.482 320.317,286.482 L320.317,286.482 Z M343.78,265.461 C343.890001,265.417 344.043999,265.384 344.242,265.362 C344.440001,265.34 344.637999,265.329 344.836,265.329 C345.078001,265.329 345.314499,265.3455 345.5455,265.3785 C345.776501,265.4115 345.968999,265.472 346.123,265.56 L346.222,265.758 L339.853,276.054 L346.948,287.604 C346.441997,288.000002 345.925003,288.198 345.397,288.198 C345.088998,288.198 344.781002,288.115501 344.473,287.9505 C344.164998,287.785499 343.890001,287.516002 343.648,287.142 L338.137,278.199 L332.164,288 C332.031999,288.044 331.872501,288.077 331.6855,288.099 C331.498499,288.121 331.295001,288.132 331.075,288.132 C330.832999,288.132 330.591001,288.1155 330.349,288.0825 C330.106999,288.0495 329.898001,287.989 329.722,287.901 L329.623,287.703 L336.85,276.12 L330.547,265.857 C330.789001,265.680999 331.047499,265.538001 331.3225,265.428 C331.597501,265.317999 331.877999,265.263 332.164,265.263 C332.846003,265.263 333.406998,265.614996 333.847,266.319 L338.566,273.975 L343.78,265.461 Z" id="AutoX" fill="#FFFFFF"></path>
        </g>
    </g>
</svg>